<?xml version="1.0" encoding="UTF-8" standalone="no"?>
<!DOCTYPE svg PUBLIC "-//W3C//DTD SVG 1.1//EN"
 "http://www.w3.org/Graphics/SVG/1.1/DTD/svg11.dtd">
<!-- Generated by graphviz version 14.0.2 (20251019.1705)
 -->
<!-- Title: classes_A02 Pages: 1 -->
<svg width="828pt" height="986pt"
 viewBox="0.00 0.00 828.00 986.00" xmlns="http://www.w3.org/2000/svg" xmlns:xlink="http://www.w3.org/1999/xlink">
<g id="graph0" class="graph" transform="scale(1 1) rotate(0) translate(4 981.5)">
<title>classes_A02</title>
<polygon fill="white" stroke="none" points="-4,4 -4,-981.5 823.88,-981.5 823.88,4 -4,4"/>
<!-- dice_hand.DiceHand -->
<g id="node1" class="node">
<title>dice_hand.DiceHand</title>
<polygon fill="none" stroke="black" points="184.75,-210 184.75,-333 326.75,-333 326.75,-210 184.75,-210"/>
<text xml:space="preserve" text-anchor="start" x="228.38" y="-315.7" font-family="Times,serif" font-size="14.00">DiceHand</text>
<polyline fill="none" stroke="black" points="184.75,-308.5 326.75,-308.5"/>
<text xml:space="preserve" text-anchor="start" x="199.5" y="-291.2" font-family="Times,serif" font-size="14.00">current_value : tuple</text>
<text xml:space="preserve" text-anchor="start" x="199.5" y="-274.7" font-family="Times,serif" font-size="14.00">die1</text>
<text xml:space="preserve" text-anchor="start" x="199.5" y="-258.2" font-family="Times,serif" font-size="14.00">die2</text>
<polyline fill="none" stroke="black" points="184.75,-251 326.75,-251"/>
<text xml:space="preserve" text-anchor="start" x="192.75" y="-233.7" font-family="Times,serif" font-size="14.00">__init__(num_of_dice)</text>
<text xml:space="preserve" text-anchor="start" x="192.75" y="-217.2" font-family="Times,serif" font-size="14.00">roll()</text>
</g>
<!-- game.Game -->
<g id="node3" class="node">
<title>game.Game</title>
<polygon fill="none" stroke="black" points="0,-403 0,-767.5 281.5,-767.5 281.5,-403 0,-403"/>
<text xml:space="preserve" text-anchor="start" x="124.25" y="-750.2" font-family="Times,serif" font-size="14.00">Game</text>
<polyline fill="none" stroke="black" points="0,-743 281.5,-743"/>
<text xml:space="preserve" text-anchor="start" x="87.88" y="-725.7" font-family="Times,serif" font-size="14.00">computer_player</text>
<text xml:space="preserve" text-anchor="start" x="87.88" y="-709.2" font-family="Times,serif" font-size="14.00">current_player</text>
<text xml:space="preserve" text-anchor="start" x="87.88" y="-692.7" font-family="Times,serif" font-size="14.00">dice_hand</text>
<text xml:space="preserve" text-anchor="start" x="87.88" y="-676.2" font-family="Times,serif" font-size="14.00">game_over : bool</text>
<text xml:space="preserve" text-anchor="start" x="87.88" y="-659.7" font-family="Times,serif" font-size="14.00">human_player</text>
<text xml:space="preserve" text-anchor="start" x="87.88" y="-643.2" font-family="Times,serif" font-size="14.00">loser : NoneType</text>
<text xml:space="preserve" text-anchor="start" x="87.88" y="-626.7" font-family="Times,serif" font-size="14.00">other_player</text>
<text xml:space="preserve" text-anchor="start" x="87.88" y="-610.2" font-family="Times,serif" font-size="14.00">players : list</text>
<text xml:space="preserve" text-anchor="start" x="87.88" y="-593.7" font-family="Times,serif" font-size="14.00">turn_index : int</text>
<text xml:space="preserve" text-anchor="start" x="87.88" y="-577.2" font-family="Times,serif" font-size="14.00">turn_total : int</text>
<text xml:space="preserve" text-anchor="start" x="87.88" y="-560.7" font-family="Times,serif" font-size="14.00">win_score : int</text>
<text xml:space="preserve" text-anchor="start" x="87.88" y="-544.2" font-family="Times,serif" font-size="14.00">winner : NoneType</text>
<polyline fill="none" stroke="black" points="0,-537 281.5,-537"/>
<text xml:space="preserve" text-anchor="start" x="8" y="-520.7" font-family="Times,serif" font-size="14.00">__init__(human_name: str, computer_name: str)</text>
<text xml:space="preserve" text-anchor="start" x="8" y="-506.7" font-family="Times,serif" font-style="italic" font-size="14.00">cheat</text>
<text xml:space="preserve" text-anchor="start" x="37.25" y="-506.7" font-family="Times,serif" font-size="14.00">()</text>
<text xml:space="preserve" text-anchor="start" x="8" y="-492.7" font-family="Times,serif" font-size="14.00">computer_turn()</text>
<text xml:space="preserve" text-anchor="start" x="8" y="-478.7" font-family="Times,serif" font-size="14.00">handle_roll(r1, r2, total)</text>
<text xml:space="preserve" text-anchor="start" x="8" y="-464.7" font-family="Times,serif" font-size="14.00">hold_and_check_win()</text>
<text xml:space="preserve" text-anchor="start" x="8" y="-450.7" font-family="Times,serif" font-size="14.00">human_turn()</text>
<text xml:space="preserve" text-anchor="start" x="8" y="-436.7" font-family="Times,serif" font-size="14.00">roll_dice()</text>
<text xml:space="preserve" text-anchor="start" x="8" y="-422.7" font-family="Times,serif" font-size="14.00">start()</text>
<text xml:space="preserve" text-anchor="start" x="8" y="-408.7" font-family="Times,serif" font-size="14.00">swap_turn()</text>
</g>
<!-- dice_hand.DiceHand&#45;&gt;game.Game -->
<g id="edge3" class="edge">
<title>dice_hand.DiceHand&#45;&gt;game.Game</title>
<path fill="none" stroke="black" d="M235.59,-333.4C229.95,-350.02 223.73,-367.99 217.75,-384.5 217.04,-386.45 216.33,-388.41 215.62,-390.38"/>
<polygon fill="black" stroke="black" points="215.59,-390.45 217.28,-397.46 211.46,-401.71 209.77,-394.7 215.59,-390.45"/>
<text xml:space="preserve" text-anchor="middle" x="250.91" y="-371.2" font-family="Times,serif" font-size="14.00" fill="green">dice_hand</text>
</g>
<!-- dice.Die -->
<g id="node2" class="node">
<title>dice.Die</title>
<polygon fill="none" stroke="black" points="163.38,-0.5 163.38,-140 348.12,-140 348.12,-0.5 163.38,-0.5"/>
<text xml:space="preserve" text-anchor="start" x="246" y="-122.7" font-family="Times,serif" font-size="14.00">Die</text>
<polyline fill="none" stroke="black" points="163.38,-115.5 348.12,-115.5"/>
<text xml:space="preserve" text-anchor="start" x="204.38" y="-98.2" font-family="Times,serif" font-size="14.00">dice_graphics : list</text>
<text xml:space="preserve" text-anchor="start" x="204.38" y="-81.7" font-family="Times,serif" font-size="14.00">last_roll : int</text>
<text xml:space="preserve" text-anchor="start" x="204.38" y="-65.2" font-family="Times,serif" font-size="14.00">sides : int</text>
<polyline fill="none" stroke="black" points="163.38,-58 348.12,-58"/>
<text xml:space="preserve" text-anchor="start" x="171.38" y="-40.7" font-family="Times,serif" font-size="14.00">__init__(sides: int)</text>
<text xml:space="preserve" text-anchor="start" x="171.38" y="-24.2" font-family="Times,serif" font-size="14.00">get_dice_graphics(roll: int): str</text>
<text xml:space="preserve" text-anchor="start" x="171.38" y="-7.7" font-family="Times,serif" font-size="14.00">roll(): int</text>
</g>
<!-- dice.Die&#45;&gt;dice_hand.DiceHand -->
<g id="edge1" class="edge">
<title>dice.Die&#45;&gt;dice_hand.DiceHand</title>
<path fill="none" stroke="black" d="M236.43,-140.48C235.25,-146.54 234.24,-152.61 233.5,-158.5 231.93,-171.04 232.52,-184.28 234.29,-197.09"/>
<polygon fill="black" stroke="black" points="234.27,-197 239.22,-202.25 236.27,-208.83 231.33,-203.58 234.27,-197"/>
<text xml:space="preserve" text-anchor="middle" x="245.12" y="-161.7" font-family="Times,serif" font-size="14.00" fill="green">die1</text>
</g>
<!-- dice.Die&#45;&gt;dice_hand.DiceHand -->
<g id="edge2" class="edge">
<title>dice.Die&#45;&gt;dice_hand.DiceHand</title>
<path fill="none" stroke="black" d="M256.61,-140.31C256.67,-146.46 256.72,-152.59 256.75,-158.5 256.82,-170.97 256.79,-184.22 256.71,-197.08"/>
<polygon fill="black" stroke="black" points="256.72,-196.86 260.67,-202.89 256.62,-208.86 252.67,-202.83 256.72,-196.86"/>
<text xml:space="preserve" text-anchor="middle" x="268.42" y="-161.7" font-family="Times,serif" font-size="14.00" fill="green">die2</text>
</g>
<!-- shell.Shell -->
<g id="node8" class="node">
<title>shell.Shell</title>
<polygon fill="none" stroke="black" points="90.38,-821 90.38,-977 191.12,-977 191.12,-821 90.38,-821"/>
<text xml:space="preserve" text-anchor="start" x="126.88" y="-959.7" font-family="Times,serif" font-size="14.00">Shell</text>
<polyline fill="none" stroke="black" points="90.38,-952.5 191.12,-952.5"/>
<text xml:space="preserve" text-anchor="start" x="108.5" y="-935.2" font-family="Times,serif" font-size="14.00">game</text>
<text xml:space="preserve" text-anchor="start" x="108.5" y="-918.7" font-family="Times,serif" font-size="14.00">intro : str</text>
<text xml:space="preserve" text-anchor="start" x="108.5" y="-902.2" font-family="Times,serif" font-size="14.00">prompt : str</text>
<polyline fill="none" stroke="black" points="90.38,-895 191.12,-895"/>
<text xml:space="preserve" text-anchor="start" x="98.38" y="-877.7" font-family="Times,serif" font-size="14.00">__init__()</text>
<text xml:space="preserve" text-anchor="start" x="98.38" y="-861.2" font-family="Times,serif" font-size="14.00">do_change(arg)</text>
<text xml:space="preserve" text-anchor="start" x="98.38" y="-844.7" font-family="Times,serif" font-size="14.00">do_roll(arg)</text>
<text xml:space="preserve" text-anchor="start" x="98.38" y="-828.2" font-family="Times,serif" font-size="14.00">do_start(arg)</text>
</g>
<!-- game.Game&#45;&gt;shell.Shell -->
<g id="edge4" class="edge">
<title>game.Game&#45;&gt;shell.Shell</title>
<path fill="none" stroke="black" d="M140.75,-767.6C140.75,-781.32 140.75,-794.76 140.75,-807.5"/>
<polygon fill="black" stroke="black" points="140.75,-807.6 144.75,-813.6 140.75,-819.6 136.75,-813.6 140.75,-807.6"/>
<text xml:space="preserve" text-anchor="middle" x="155.75" y="-789.2" font-family="Times,serif" font-size="14.00" fill="green">game</text>
</g>
<!-- highscore.Highscore -->
<g id="node4" class="node">
<title>highscore.Highscore</title>
<polygon fill="none" stroke="black" points="366,-45.75 366,-94.75 437.5,-94.75 437.5,-45.75 366,-45.75"/>
<text xml:space="preserve" text-anchor="start" x="374" y="-77.45" font-family="Times,serif" font-size="14.00">Highscore</text>
<polyline fill="none" stroke="black" points="366,-70.25 437.5,-70.25"/>
<polyline fill="none" stroke="black" points="366,-70.25 437.5,-70.25"/>
<text xml:space="preserve" text-anchor="start" x="374.75" y="-53.95" font-family="Times,serif" font-style="italic" font-size="14.00">__init__</text>
<text xml:space="preserve" text-anchor="start" x="419.75" y="-53.95" font-family="Times,serif" font-size="14.00">()</text>
</g>
<!-- histogram.Histogram -->
<g id="node5" class="node">
<title>histogram.Histogram</title>
<polygon fill="none" stroke="black" points="455.75,-45.75 455.75,-94.75 705.75,-94.75 705.75,-45.75 455.75,-45.75"/>
<text xml:space="preserve" text-anchor="start" x="551.88" y="-77.45" font-family="Times,serif" font-size="14.00">Histogram</text>
<polyline fill="none" stroke="black" points="455.75,-70.25 705.75,-70.25"/>
<polyline fill="none" stroke="black" points="455.75,-70.25 705.75,-70.25"/>
<text xml:space="preserve" text-anchor="start" x="463.75" y="-53.95" font-family="Times,serif" font-style="italic" font-size="14.00">__init__</text>
<text xml:space="preserve" text-anchor="start" x="508.75" y="-53.95" font-family="Times,serif" font-size="14.00">(data_list, player, num_of_rounds)</text>
</g>
<!-- intelligence.Intelligence -->
<g id="node6" class="node">
<title>intelligence.Intelligence</title>
<polygon fill="none" stroke="black" points="723.62,-45.75 723.62,-94.75 819.88,-94.75 819.88,-45.75 723.62,-45.75"/>
<text xml:space="preserve" text-anchor="start" x="739.88" y="-77.45" font-family="Times,serif" font-size="14.00">Intelligence</text>
<polyline fill="none" stroke="black" points="723.62,-70.25 819.88,-70.25"/>
<polyline fill="none" stroke="black" points="723.62,-70.25 819.88,-70.25"/>
<text xml:space="preserve" text-anchor="start" x="731.62" y="-53.95" font-family="Times,serif" font-style="italic" font-size="14.00">__init__</text>
<text xml:space="preserve" text-anchor="start" x="776.62" y="-53.95" font-family="Times,serif" font-size="14.00">(level)</text>
</g>
<!-- player.Player -->
<g id="node7" class="node">
<title>player.Player</title>
<polygon fill="none" stroke="black" points="1.75,-193.5 1.75,-349.5 137.75,-349.5 137.75,-193.5 1.75,-193.5"/>
<text xml:space="preserve" text-anchor="start" x="52.5" y="-332.2" font-family="Times,serif" font-size="14.00">Player</text>
<polyline fill="none" stroke="black" points="1.75,-325 137.75,-325"/>
<text xml:space="preserve" text-anchor="start" x="42.75" y="-307.7" font-family="Times,serif" font-size="14.00">name</text>
<text xml:space="preserve" text-anchor="start" x="42.75" y="-291.2" font-family="Times,serif" font-size="14.00">score : int</text>
<polyline fill="none" stroke="black" points="1.75,-284 137.75,-284"/>
<text xml:space="preserve" text-anchor="start" x="9.75" y="-266.7" font-family="Times,serif" font-size="14.00">__init__(name)</text>
<text xml:space="preserve" text-anchor="start" x="9.75" y="-250.2" font-family="Times,serif" font-size="14.00">add_points(points)</text>
<text xml:space="preserve" text-anchor="start" x="9.75" y="-233.7" font-family="Times,serif" font-size="14.00">hold(points)</text>
<text xml:space="preserve" text-anchor="start" x="9.75" y="-217.2" font-family="Times,serif" font-size="14.00">reset_score()</text>
<text xml:space="preserve" text-anchor="start" x="9.75" y="-200.7" font-family="Times,serif" font-size="14.00">set_name(new_name)</text>
</g>
<!-- player.Player&#45;&gt;game.Game -->
<g id="edge5" class="edge">
<title>player.Player&#45;&gt;game.Game</title>
<path fill="none" stroke="black" d="M39.69,-349.81C38.09,-361.42 38.09,-373.26 40.75,-384.5 41.2,-386.39 41.66,-388.28 42.15,-390.17"/>
<polygon fill="black" stroke="black" points="42.17,-390.24 47.63,-394.94 45.39,-401.8 39.93,-397.09 42.17,-390.24"/>
<text xml:space="preserve" text-anchor="middle" x="79.75" y="-371.2" font-family="Times,serif" font-size="14.00" fill="green">human_player</text>
</g>
<!-- player.Player&#45;&gt;game.Game -->
<g id="edge6" class="edge">
<title>player.Player&#45;&gt;game.Game</title>
<path fill="none" stroke="black" d="M112.44,-349.96C114.83,-355.96 116.98,-362.01 118.75,-368 120.88,-375.19 122.81,-382.56 124.56,-390.05"/>
<polygon fill="black" stroke="black" points="124.58,-390.14 129.77,-395.14 127.14,-401.86 121.95,-396.85 124.58,-390.14"/>
<text xml:space="preserve" text-anchor="middle" x="168.01" y="-371.2" font-family="Times,serif" font-size="14.00" fill="green">computer_player</text>
</g>
</g>
</svg>
