<?xml version="1.0" encoding="UTF-8" standalone="no"?>
<!DOCTYPE svg PUBLIC "-//W3C//DTD SVG 1.1//EN"
 "http://www.w3.org/Graphics/SVG/1.1/DTD/svg11.dtd">
<!-- Generated by graphviz version 14.0.2 (20251019.1705)
 -->
<!-- Title: packages_A02 Pages: 1 -->
<svg width="335pt" height="332pt"
 viewBox="0.00 0.00 335.00 332.00" xmlns="http://www.w3.org/2000/svg" xmlns:xlink="http://www.w3.org/1999/xlink">
<g id="graph0" class="graph" transform="scale(1 1) rotate(0) translate(4 328)">
<title>packages_A02</title>
<polygon fill="white" stroke="none" points="-4,4 -4,-328 330.75,-328 330.75,4 -4,4"/>
<!-- dice -->
<g id="node1" class="node">
<title>dice</title>
<polygon fill="none" stroke="black" points="142.25,-324 88.25,-324 88.25,-288 142.25,-288 142.25,-324"/>
<text xml:space="preserve" text-anchor="start" x="104" y="-300.95" font-family="Times,serif" font-size="14.00">dice</text>
</g>
<!-- dice_hand -->
<g id="node2" class="node">
<title>dice_hand</title>
<polygon fill="none" stroke="black" points="151,-252 79.5,-252 79.5,-216 151,-216 151,-252"/>
<text xml:space="preserve" text-anchor="start" x="87.5" y="-228.95" font-family="Times,serif" font-size="14.00">dice_hand</text>
</g>
<!-- dice_hand&#45;&gt;dice -->
<g id="edge1" class="edge">
<title>dice_hand&#45;&gt;dice</title>
<path fill="none" stroke="black" d="M115.25,-252.3C115.25,-259.68 115.25,-268.48 115.25,-276.75"/>
<polygon fill="black" stroke="black" points="115.25,-286.68 110.75,-276.68 115.25,-282.9 115.25,-276.68 115.25,-276.68 115.25,-276.68 115.25,-282.9 119.75,-276.68 115.25,-286.68"/>
</g>
<!-- game -->
<g id="node3" class="node">
<title>game</title>
<polygon fill="none" stroke="black" points="141.25,-180 87.25,-180 87.25,-144 141.25,-144 141.25,-180"/>
<text xml:space="preserve" text-anchor="start" x="99.25" y="-156.95" font-family="Times,serif" font-size="14.00">game</text>
</g>
<!-- game&#45;&gt;dice_hand -->
<g id="edge2" class="edge">
<title>game&#45;&gt;dice_hand</title>
<path fill="none" stroke="black" d="M114.5,-180.3C114.6,-187.68 114.73,-196.48 114.85,-204.75"/>
<polygon fill="black" stroke="black" points="114.99,-214.68 110.35,-204.74 114.93,-210.9 114.85,-204.68 114.85,-204.68 114.85,-204.68 114.93,-210.9 119.34,-204.61 114.99,-214.68"/>
</g>
<!-- player -->
<g id="node8" class="node">
<title>player</title>
<polygon fill="none" stroke="black" points="61.25,-252 7.25,-252 7.25,-216 61.25,-216 61.25,-252"/>
<text xml:space="preserve" text-anchor="start" x="17.38" y="-228.95" font-family="Times,serif" font-size="14.00">player</text>
</g>
<!-- game&#45;&gt;player -->
<g id="edge3" class="edge">
<title>game&#45;&gt;player</title>
<path fill="none" stroke="black" d="M94.47,-180.3C84.76,-188.8 72.89,-199.19 62.27,-208.49"/>
<polygon fill="black" stroke="black" points="54.99,-214.85 59.55,-204.88 57.84,-212.36 62.52,-208.27 62.52,-208.27 62.52,-208.27 57.84,-212.36 65.48,-211.65 54.99,-214.85"/>
</g>
<!-- highscore -->
<g id="node4" class="node">
<title>highscore</title>
<polygon fill="none" stroke="black" points="68.5,-180 0,-180 0,-144 68.5,-144 68.5,-180"/>
<text xml:space="preserve" text-anchor="start" x="8" y="-156.95" font-family="Times,serif" font-size="14.00">highscore</text>
</g>
<!-- highscore&#45;&gt;player -->
<g id="edge4" class="edge">
<title>highscore&#45;&gt;player</title>
<path fill="none" stroke="black" d="M34.25,-180.3C34.25,-187.68 34.25,-196.48 34.25,-204.75"/>
<polygon fill="black" stroke="black" points="34.25,-214.68 29.75,-204.68 34.25,-210.9 34.25,-204.68 34.25,-204.68 34.25,-204.68 34.25,-210.9 38.75,-204.68 34.25,-214.68"/>
</g>
<!-- histogram -->
<g id="node5" class="node">
<title>histogram</title>
<polygon fill="none" stroke="black" points="229.62,-36 158.88,-36 158.88,0 229.62,0 229.62,-36"/>
<text xml:space="preserve" text-anchor="start" x="166.88" y="-12.95" font-family="Times,serif" font-size="14.00">histogram</text>
</g>
<!-- intelligence -->
<g id="node6" class="node">
<title>intelligence</title>
<polygon fill="none" stroke="black" points="326.75,-36 247.75,-36 247.75,0 326.75,0 326.75,-36"/>
<text xml:space="preserve" text-anchor="start" x="255.75" y="-12.95" font-family="Times,serif" font-size="14.00">intelligence</text>
</g>
<!-- main -->
<g id="node7" class="node">
<title>main</title>
<polygon fill="none" stroke="black" points="141.25,-36 87.25,-36 87.25,0 141.25,0 141.25,-36"/>
<text xml:space="preserve" text-anchor="start" x="100.38" y="-12.95" font-family="Times,serif" font-size="14.00">main</text>
</g>
<!-- shell -->
<g id="node9" class="node">
<title>shell</title>
<polygon fill="none" stroke="black" points="141.25,-108 87.25,-108 87.25,-72 141.25,-72 141.25,-108"/>
<text xml:space="preserve" text-anchor="start" x="101.5" y="-84.95" font-family="Times,serif" font-size="14.00">shell</text>
</g>
<!-- main&#45;&gt;shell -->
<g id="edge5" class="edge">
<title>main&#45;&gt;shell</title>
<path fill="none" stroke="black" d="M114.25,-36.3C114.25,-43.68 114.25,-52.48 114.25,-60.75"/>
<polygon fill="black" stroke="black" points="114.25,-70.68 109.75,-60.68 114.25,-66.9 114.25,-60.68 114.25,-60.68 114.25,-60.68 114.25,-66.9 118.75,-60.68 114.25,-70.68"/>
</g>
<!-- shell&#45;&gt;game -->
<g id="edge6" class="edge">
<title>shell&#45;&gt;game</title>
<path fill="none" stroke="black" d="M114.25,-108.3C114.25,-115.68 114.25,-124.48 114.25,-132.75"/>
<polygon fill="black" stroke="black" points="114.25,-142.68 109.75,-132.68 114.25,-138.9 114.25,-132.68 114.25,-132.68 114.25,-132.68 114.25,-138.9 118.75,-132.68 114.25,-142.68"/>
</g>
</g>
</svg>
